<mxfile host="Electron" agent="Mozilla/5.0 (Windows NT 10.0; Win64; x64) AppleWebKit/537.36 (KHTML, like Gecko) draw.io/26.0.16 Chrome/132.0.6834.196 Electron/34.2.0 Safari/537.36" version="26.0.16">
  <diagram name="第 1 页" id="ELsKX-Dd2jHlLdNJQemX">
    <mxGraphModel dx="778" dy="1639" grid="1" gridSize="10" guides="1" tooltips="1" connect="1" arrows="1" fold="1" page="1" pageScale="1" pageWidth="827" pageHeight="1169" math="0" shadow="0">
      <root>
        <mxCell id="0" />
        <mxCell id="1" parent="0" />
        <mxCell id="Mg8EBvOMUo8GUyyjbdEt-1" value="" style="rounded=1;whiteSpace=wrap;html=1;" parent="1" vertex="1">
          <mxGeometry x="112" y="-564" width="80" height="111" as="geometry" />
        </mxCell>
        <mxCell id="Mg8EBvOMUo8GUyyjbdEt-2" value="msg" style="rounded=1;whiteSpace=wrap;html=1;" parent="1" vertex="1">
          <mxGeometry x="122" y="-532" width="30" height="20" as="geometry" />
        </mxCell>
        <mxCell id="Mg8EBvOMUo8GUyyjbdEt-3" value="msg" style="rounded=1;whiteSpace=wrap;html=1;" parent="1" vertex="1">
          <mxGeometry x="152" y="-512" width="30" height="20" as="geometry" />
        </mxCell>
        <mxCell id="Mg8EBvOMUo8GUyyjbdEt-4" value="msg" style="rounded=1;whiteSpace=wrap;html=1;" parent="1" vertex="1">
          <mxGeometry x="122" y="-512" width="30" height="20" as="geometry" />
        </mxCell>
        <mxCell id="Mg8EBvOMUo8GUyyjbdEt-5" value="msg" style="rounded=1;whiteSpace=wrap;html=1;" parent="1" vertex="1">
          <mxGeometry x="152" y="-492" width="30" height="20" as="geometry" />
        </mxCell>
        <mxCell id="Mg8EBvOMUo8GUyyjbdEt-6" value="msg" style="rounded=1;whiteSpace=wrap;html=1;" parent="1" vertex="1">
          <mxGeometry x="122" y="-492" width="30" height="20" as="geometry" />
        </mxCell>
        <mxCell id="Mg8EBvOMUo8GUyyjbdEt-7" value="msg" style="rounded=1;whiteSpace=wrap;html=1;" parent="1" vertex="1">
          <mxGeometry x="152" y="-532" width="30" height="20" as="geometry" />
        </mxCell>
        <mxCell id="Mg8EBvOMUo8GUyyjbdEt-8" value="&lt;b&gt;Client&lt;/b&gt;" style="shape=umlActor;verticalLabelPosition=bottom;verticalAlign=top;html=1;outlineConnect=0;" parent="1" vertex="1">
          <mxGeometry x="440" y="-605.5" width="30" height="59" as="geometry" />
        </mxCell>
        <mxCell id="Mg8EBvOMUo8GUyyjbdEt-9" value="" style="endArrow=none;dashed=1;html=1;dashPattern=1 3;strokeWidth=2;rounded=0;" parent="1" edge="1">
          <mxGeometry width="50" height="50" relative="1" as="geometry">
            <mxPoint x="142" y="-464" as="sourcePoint" />
            <mxPoint x="162" y="-464" as="targetPoint" />
          </mxGeometry>
        </mxCell>
        <mxCell id="Mg8EBvOMUo8GUyyjbdEt-10" value="消息池" style="text;html=1;align=center;verticalAlign=middle;whiteSpace=wrap;rounded=0;" parent="1" vertex="1">
          <mxGeometry x="122" y="-450" width="60" height="22" as="geometry" />
        </mxCell>
        <mxCell id="Mg8EBvOMUo8GUyyjbdEt-11" value="&lt;b&gt;Listener&lt;/b&gt;" style="shape=umlActor;verticalLabelPosition=bottom;verticalAlign=top;html=1;outlineConnect=0;" parent="1" vertex="1">
          <mxGeometry x="466" y="-372.75" width="30" height="59" as="geometry" />
        </mxCell>
        <mxCell id="Mg8EBvOMUo8GUyyjbdEt-12" value="&lt;b style=&quot;&quot;&gt;Main&lt;/b&gt;" style="shape=umlActor;verticalLabelPosition=bottom;verticalAlign=top;html=1;outlineConnect=0;" parent="1" vertex="1">
          <mxGeometry x="57" y="-583" width="30" height="60" as="geometry" />
        </mxCell>
        <mxCell id="Mg8EBvOMUo8GUyyjbdEt-16" value="" style="html=1;shadow=0;dashed=0;align=center;verticalAlign=middle;shape=mxgraph.arrows2.bendArrow;dy=7.84;dx=18;notch=0;arrowHead=23.44;rounded=1;rotation=-90;" parent="1" vertex="1">
          <mxGeometry x="230" y="-450" width="40" height="50" as="geometry" />
        </mxCell>
        <mxCell id="Mg8EBvOMUo8GUyyjbdEt-25" value="" style="html=1;shadow=0;dashed=0;align=center;verticalAlign=middle;shape=mxgraph.arrows2.arrow;dy=0.47;dx=18.11;flipH=1;notch=0;rotation=-180;" parent="1" vertex="1">
          <mxGeometry x="228" y="-585" width="50" height="30" as="geometry" />
        </mxCell>
        <mxCell id="Mg8EBvOMUo8GUyyjbdEt-26" value="msg" style="text;html=1;align=center;verticalAlign=middle;whiteSpace=wrap;rounded=0;" parent="1" vertex="1">
          <mxGeometry x="220" y="-585" width="60" height="30" as="geometry" />
        </mxCell>
        <mxCell id="Mg8EBvOMUo8GUyyjbdEt-27" value="" style="curved=1;endArrow=classic;html=1;rounded=0;strokeWidth=2;strokeColor=#2d2a2a;entryX=0;entryY=1;entryDx=0;entryDy=0;" parent="1" target="Mg8EBvOMUo8GUyyjbdEt-26" edge="1">
          <mxGeometry width="50" height="50" relative="1" as="geometry">
            <mxPoint x="208" y="-500" as="sourcePoint" />
            <mxPoint x="218" y="-530" as="targetPoint" />
            <Array as="points">
              <mxPoint x="168" y="-530" />
            </Array>
          </mxGeometry>
        </mxCell>
        <mxCell id="Mg8EBvOMUo8GUyyjbdEt-28" value="" style="curved=1;endArrow=classic;html=1;rounded=0;strokeWidth=2;entryX=0;entryY=0.5;entryDx=0;entryDy=0;" parent="1" target="Mg8EBvOMUo8GUyyjbdEt-26" edge="1">
          <mxGeometry width="50" height="50" relative="1" as="geometry">
            <mxPoint x="105" y="-555" as="sourcePoint" />
            <mxPoint x="210" y="-558" as="targetPoint" />
            <Array as="points">
              <mxPoint x="150" y="-538" />
            </Array>
          </mxGeometry>
        </mxCell>
        <mxCell id="Mg8EBvOMUo8GUyyjbdEt-29" value="&lt;span style=&quot;color: rgb(0, 0, 0); font-family: Helvetica; font-size: 12px; font-style: normal; font-variant-ligatures: normal; font-variant-caps: normal; letter-spacing: normal; orphans: 2; text-align: center; text-indent: 0px; text-transform: none; widows: 2; word-spacing: 0px; -webkit-text-stroke-width: 0px; white-space: nowrap; background-color: rgb(251, 251, 251); text-decoration-thickness: initial; text-decoration-style: initial; text-decoration-color: initial; float: none; display: inline !important;&quot;&gt;&lt;b&gt;Server&lt;/b&gt;&lt;/span&gt;" style="shape=umlActor;verticalLabelPosition=bottom;verticalAlign=top;html=1;outlineConnect=0;" parent="1" vertex="1">
          <mxGeometry x="213" y="-525" width="30" height="60" as="geometry" />
        </mxCell>
        <mxCell id="Mg8EBvOMUo8GUyyjbdEt-30" value="" style="ellipse;whiteSpace=wrap;html=1;aspect=fixed;" parent="1" vertex="1">
          <mxGeometry x="317" y="-610" width="80" height="80" as="geometry" />
        </mxCell>
        <mxCell id="Mg8EBvOMUo8GUyyjbdEt-31" value="" style="ellipse;whiteSpace=wrap;html=1;aspect=fixed;" parent="1" vertex="1">
          <mxGeometry x="332" y="-595" width="50" height="50" as="geometry" />
        </mxCell>
        <mxCell id="Mg8EBvOMUo8GUyyjbdEt-32" value="" style="endArrow=none;html=1;rounded=0;entryX=0.5;entryY=0;entryDx=0;entryDy=0;exitX=0.5;exitY=0;exitDx=0;exitDy=0;" parent="1" source="Mg8EBvOMUo8GUyyjbdEt-31" target="Mg8EBvOMUo8GUyyjbdEt-30" edge="1">
          <mxGeometry width="50" height="50" relative="1" as="geometry">
            <mxPoint x="547" y="-580" as="sourcePoint" />
            <mxPoint x="597" y="-630" as="targetPoint" />
          </mxGeometry>
        </mxCell>
        <mxCell id="Mg8EBvOMUo8GUyyjbdEt-33" value="" style="endArrow=none;html=1;rounded=0;exitX=1;exitY=0;exitDx=0;exitDy=0;entryX=1;entryY=0;entryDx=0;entryDy=0;" parent="1" source="Mg8EBvOMUo8GUyyjbdEt-31" target="Mg8EBvOMUo8GUyyjbdEt-30" edge="1">
          <mxGeometry width="50" height="50" relative="1" as="geometry">
            <mxPoint x="487" y="-520" as="sourcePoint" />
            <mxPoint x="537" y="-570" as="targetPoint" />
          </mxGeometry>
        </mxCell>
        <mxCell id="Mg8EBvOMUo8GUyyjbdEt-34" value="" style="endArrow=none;html=1;rounded=0;exitX=1;exitY=0.5;exitDx=0;exitDy=0;entryX=1;entryY=0.5;entryDx=0;entryDy=0;" parent="1" source="Mg8EBvOMUo8GUyyjbdEt-31" target="Mg8EBvOMUo8GUyyjbdEt-30" edge="1">
          <mxGeometry width="50" height="50" relative="1" as="geometry">
            <mxPoint x="707" y="-600" as="sourcePoint" />
            <mxPoint x="447" y="-550" as="targetPoint" />
          </mxGeometry>
        </mxCell>
        <mxCell id="Mg8EBvOMUo8GUyyjbdEt-35" value="" style="endArrow=none;html=1;rounded=0;exitX=1;exitY=1;exitDx=0;exitDy=0;entryX=1;entryY=1;entryDx=0;entryDy=0;" parent="1" source="Mg8EBvOMUo8GUyyjbdEt-30" target="Mg8EBvOMUo8GUyyjbdEt-31" edge="1">
          <mxGeometry width="50" height="50" relative="1" as="geometry">
            <mxPoint x="557" y="-500" as="sourcePoint" />
            <mxPoint x="607" y="-550" as="targetPoint" />
          </mxGeometry>
        </mxCell>
        <mxCell id="Mg8EBvOMUo8GUyyjbdEt-36" value="" style="endArrow=none;html=1;rounded=0;exitX=0.5;exitY=1;exitDx=0;exitDy=0;entryX=0.5;entryY=1;entryDx=0;entryDy=0;" parent="1" source="Mg8EBvOMUo8GUyyjbdEt-30" target="Mg8EBvOMUo8GUyyjbdEt-31" edge="1">
          <mxGeometry width="50" height="50" relative="1" as="geometry">
            <mxPoint x="497" y="-490" as="sourcePoint" />
            <mxPoint x="547" y="-540" as="targetPoint" />
          </mxGeometry>
        </mxCell>
        <mxCell id="Mg8EBvOMUo8GUyyjbdEt-37" value="" style="endArrow=none;html=1;rounded=0;exitX=0;exitY=1;exitDx=0;exitDy=0;entryX=0;entryY=1;entryDx=0;entryDy=0;" parent="1" source="Mg8EBvOMUo8GUyyjbdEt-30" target="Mg8EBvOMUo8GUyyjbdEt-31" edge="1">
          <mxGeometry width="50" height="50" relative="1" as="geometry">
            <mxPoint x="547" y="-510" as="sourcePoint" />
            <mxPoint x="597" y="-560" as="targetPoint" />
          </mxGeometry>
        </mxCell>
        <mxCell id="Mg8EBvOMUo8GUyyjbdEt-38" value="" style="endArrow=none;html=1;rounded=0;entryX=0;entryY=0.5;entryDx=0;entryDy=0;exitX=0;exitY=0.5;exitDx=0;exitDy=0;" parent="1" source="Mg8EBvOMUo8GUyyjbdEt-30" target="Mg8EBvOMUo8GUyyjbdEt-31" edge="1">
          <mxGeometry width="50" height="50" relative="1" as="geometry">
            <mxPoint x="297" y="-530" as="sourcePoint" />
            <mxPoint x="297" y="-580" as="targetPoint" />
          </mxGeometry>
        </mxCell>
        <mxCell id="Mg8EBvOMUo8GUyyjbdEt-39" value="" style="endArrow=none;html=1;rounded=0;exitX=0;exitY=0;exitDx=0;exitDy=0;entryX=0;entryY=0;entryDx=0;entryDy=0;" parent="1" source="Mg8EBvOMUo8GUyyjbdEt-31" target="Mg8EBvOMUo8GUyyjbdEt-30" edge="1">
          <mxGeometry width="50" height="50" relative="1" as="geometry">
            <mxPoint x="497" y="-520" as="sourcePoint" />
            <mxPoint x="547" y="-570" as="targetPoint" />
          </mxGeometry>
        </mxCell>
        <mxCell id="Mg8EBvOMUo8GUyyjbdEt-50" value="&lt;font style=&quot;font-size: 10px;&quot;&gt;输出队列&lt;/font&gt;" style="text;html=1;align=center;verticalAlign=middle;whiteSpace=wrap;rounded=0;" parent="1" vertex="1">
          <mxGeometry x="327" y="-585" width="60" height="30" as="geometry" />
        </mxCell>
        <mxCell id="Mg8EBvOMUo8GUyyjbdEt-52" value="" style="endArrow=classic;html=1;rounded=0;" parent="1" edge="1">
          <mxGeometry width="50" height="50" relative="1" as="geometry">
            <mxPoint x="297" y="-570.0000000000001" as="sourcePoint" />
            <mxPoint x="317" y="-570.0000000000001" as="targetPoint" />
          </mxGeometry>
        </mxCell>
        <mxCell id="Mg8EBvOMUo8GUyyjbdEt-53" value="tail" style="text;html=1;align=center;verticalAlign=middle;resizable=0;points=[];autosize=1;strokeColor=none;fillColor=none;" parent="1" vertex="1">
          <mxGeometry x="283" y="-597" width="40" height="30" as="geometry" />
        </mxCell>
        <mxCell id="Mg8EBvOMUo8GUyyjbdEt-54" value="" style="endArrow=none;html=1;rounded=0;startFill=1;startArrow=classic;" parent="1" edge="1">
          <mxGeometry width="50" height="50" relative="1" as="geometry">
            <mxPoint x="397" y="-570.5000000000001" as="sourcePoint" />
            <mxPoint x="417" y="-570.5000000000001" as="targetPoint" />
          </mxGeometry>
        </mxCell>
        <mxCell id="Mg8EBvOMUo8GUyyjbdEt-55" value="head" style="text;html=1;align=center;verticalAlign=middle;resizable=0;points=[];autosize=1;strokeColor=none;fillColor=none;" parent="1" vertex="1">
          <mxGeometry x="387" y="-597.5" width="50" height="30" as="geometry" />
        </mxCell>
        <mxCell id="Mg8EBvOMUo8GUyyjbdEt-64" value="msg" style="text;html=1;align=center;verticalAlign=middle;resizable=0;points=[];autosize=1;strokeColor=none;fillColor=none;" parent="1" vertex="1">
          <mxGeometry x="233" y="-429" width="50" height="30" as="geometry" />
        </mxCell>
        <mxCell id="Mg8EBvOMUo8GUyyjbdEt-70" value="" style="ellipse;whiteSpace=wrap;html=1;aspect=fixed;" parent="1" vertex="1">
          <mxGeometry x="317" y="-458" width="80" height="80" as="geometry" />
        </mxCell>
        <mxCell id="Mg8EBvOMUo8GUyyjbdEt-71" value="&lt;font style=&quot;font-size: 10px;&quot;&gt;输入队列&lt;/font&gt;" style="ellipse;whiteSpace=wrap;html=1;aspect=fixed;" parent="1" vertex="1">
          <mxGeometry x="332" y="-443" width="50" height="50" as="geometry" />
        </mxCell>
        <mxCell id="Mg8EBvOMUo8GUyyjbdEt-72" value="" style="ellipse;whiteSpace=wrap;html=1;aspect=fixed;" parent="1" vertex="1">
          <mxGeometry x="317" y="-372" width="80" height="80" as="geometry" />
        </mxCell>
        <mxCell id="Mg8EBvOMUo8GUyyjbdEt-73" value="&lt;font style=&quot;font-size: 10px;&quot;&gt;输入队列&lt;/font&gt;" style="ellipse;whiteSpace=wrap;html=1;aspect=fixed;" parent="1" vertex="1">
          <mxGeometry x="332" y="-357" width="50" height="50" as="geometry" />
        </mxCell>
        <mxCell id="Mg8EBvOMUo8GUyyjbdEt-74" value="" style="ellipse;whiteSpace=wrap;html=1;aspect=fixed;" parent="1" vertex="1">
          <mxGeometry x="317" y="-267" width="80" height="80" as="geometry" />
        </mxCell>
        <mxCell id="Mg8EBvOMUo8GUyyjbdEt-75" value="&lt;font style=&quot;font-size: 10px;&quot;&gt;输入队列&lt;/font&gt;" style="ellipse;whiteSpace=wrap;html=1;aspect=fixed;" parent="1" vertex="1">
          <mxGeometry x="332" y="-252" width="50" height="50" as="geometry" />
        </mxCell>
        <mxCell id="Mg8EBvOMUo8GUyyjbdEt-76" value="" style="endArrow=none;dashed=1;html=1;dashPattern=1 3;strokeWidth=2;rounded=0;" parent="1" edge="1">
          <mxGeometry width="50" height="50" relative="1" as="geometry">
            <mxPoint x="357.05" y="-270" as="sourcePoint" />
            <mxPoint x="357.05" y="-290" as="targetPoint" />
          </mxGeometry>
        </mxCell>
        <mxCell id="Mg8EBvOMUo8GUyyjbdEt-77" value="" style="rounded=0;whiteSpace=wrap;html=1;" parent="1" vertex="1">
          <mxGeometry x="590" y="-604.5" width="170" height="440" as="geometry" />
        </mxCell>
        <mxCell id="Mg8EBvOMUo8GUyyjbdEt-78" value="" style="rounded=0;whiteSpace=wrap;html=1;" parent="1" vertex="1">
          <mxGeometry x="634" y="-590" width="100" height="100" as="geometry" />
        </mxCell>
        <mxCell id="Mg8EBvOMUo8GUyyjbdEt-81" value="" style="endArrow=none;dashed=1;html=1;dashPattern=1 3;strokeWidth=2;rounded=0;" parent="1" edge="1">
          <mxGeometry width="50" height="50" relative="1" as="geometry">
            <mxPoint x="683.5" y="-313" as="sourcePoint" />
            <mxPoint x="683.5" y="-333" as="targetPoint" />
          </mxGeometry>
        </mxCell>
        <mxCell id="Mg8EBvOMUo8GUyyjbdEt-82" value="" style="shape=curlyBracket;whiteSpace=wrap;html=1;rounded=1;labelPosition=left;verticalLabelPosition=middle;align=right;verticalAlign=middle;" parent="1" vertex="1">
          <mxGeometry x="269" y="-453" width="20" height="260" as="geometry" />
        </mxCell>
        <mxCell id="Mg8EBvOMUo8GUyyjbdEt-83" value="" style="endArrow=none;html=1;rounded=0;entryX=0.5;entryY=1;entryDx=0;entryDy=0;exitX=0.5;exitY=1;exitDx=0;exitDy=0;" parent="1" source="Mg8EBvOMUo8GUyyjbdEt-70" target="Mg8EBvOMUo8GUyyjbdEt-71" edge="1">
          <mxGeometry width="50" height="50" relative="1" as="geometry">
            <mxPoint x="437" y="-350" as="sourcePoint" />
            <mxPoint x="487" y="-400" as="targetPoint" />
          </mxGeometry>
        </mxCell>
        <mxCell id="Mg8EBvOMUo8GUyyjbdEt-84" value="" style="endArrow=none;html=1;rounded=0;entryX=1;entryY=1;entryDx=0;entryDy=0;exitX=1;exitY=1;exitDx=0;exitDy=0;" parent="1" source="Mg8EBvOMUo8GUyyjbdEt-70" target="Mg8EBvOMUo8GUyyjbdEt-71" edge="1">
          <mxGeometry width="50" height="50" relative="1" as="geometry">
            <mxPoint x="417" y="-350" as="sourcePoint" />
            <mxPoint x="467" y="-400" as="targetPoint" />
          </mxGeometry>
        </mxCell>
        <mxCell id="Mg8EBvOMUo8GUyyjbdEt-85" value="" style="endArrow=none;html=1;rounded=0;entryX=1;entryY=0.5;entryDx=0;entryDy=0;exitX=1;exitY=0.5;exitDx=0;exitDy=0;" parent="1" source="Mg8EBvOMUo8GUyyjbdEt-70" target="Mg8EBvOMUo8GUyyjbdEt-71" edge="1">
          <mxGeometry width="50" height="50" relative="1" as="geometry">
            <mxPoint x="427" y="-340" as="sourcePoint" />
            <mxPoint x="477" y="-390" as="targetPoint" />
          </mxGeometry>
        </mxCell>
        <mxCell id="Mg8EBvOMUo8GUyyjbdEt-86" value="" style="endArrow=none;html=1;rounded=0;entryX=1;entryY=0;entryDx=0;entryDy=0;exitX=1;exitY=0;exitDx=0;exitDy=0;" parent="1" source="Mg8EBvOMUo8GUyyjbdEt-70" target="Mg8EBvOMUo8GUyyjbdEt-71" edge="1">
          <mxGeometry width="50" height="50" relative="1" as="geometry">
            <mxPoint x="417" y="-375" as="sourcePoint" />
            <mxPoint x="467" y="-425" as="targetPoint" />
          </mxGeometry>
        </mxCell>
        <mxCell id="Mg8EBvOMUo8GUyyjbdEt-87" value="" style="endArrow=none;html=1;rounded=0;entryX=0.5;entryY=0;entryDx=0;entryDy=0;exitX=0.5;exitY=0;exitDx=0;exitDy=0;" parent="1" source="Mg8EBvOMUo8GUyyjbdEt-70" target="Mg8EBvOMUo8GUyyjbdEt-71" edge="1">
          <mxGeometry width="50" height="50" relative="1" as="geometry">
            <mxPoint x="417" y="-378" as="sourcePoint" />
            <mxPoint x="467" y="-428" as="targetPoint" />
          </mxGeometry>
        </mxCell>
        <mxCell id="Mg8EBvOMUo8GUyyjbdEt-88" value="" style="endArrow=none;html=1;rounded=0;entryX=0;entryY=0;entryDx=0;entryDy=0;exitX=0;exitY=0;exitDx=0;exitDy=0;" parent="1" source="Mg8EBvOMUo8GUyyjbdEt-70" target="Mg8EBvOMUo8GUyyjbdEt-71" edge="1">
          <mxGeometry width="50" height="50" relative="1" as="geometry">
            <mxPoint x="417" y="-357" as="sourcePoint" />
            <mxPoint x="467" y="-407" as="targetPoint" />
          </mxGeometry>
        </mxCell>
        <mxCell id="Mg8EBvOMUo8GUyyjbdEt-89" value="" style="endArrow=none;html=1;rounded=0;entryX=0;entryY=0.5;entryDx=0;entryDy=0;exitX=0;exitY=0.5;exitDx=0;exitDy=0;" parent="1" source="Mg8EBvOMUo8GUyyjbdEt-70" target="Mg8EBvOMUo8GUyyjbdEt-71" edge="1">
          <mxGeometry width="50" height="50" relative="1" as="geometry">
            <mxPoint x="427" y="-347" as="sourcePoint" />
            <mxPoint x="477" y="-397" as="targetPoint" />
          </mxGeometry>
        </mxCell>
        <mxCell id="Mg8EBvOMUo8GUyyjbdEt-90" value="" style="endArrow=none;html=1;rounded=0;entryX=0;entryY=1;entryDx=0;entryDy=0;exitX=0;exitY=1;exitDx=0;exitDy=0;" parent="1" source="Mg8EBvOMUo8GUyyjbdEt-70" target="Mg8EBvOMUo8GUyyjbdEt-71" edge="1">
          <mxGeometry width="50" height="50" relative="1" as="geometry">
            <mxPoint x="402" y="-357" as="sourcePoint" />
            <mxPoint x="452" y="-407" as="targetPoint" />
          </mxGeometry>
        </mxCell>
        <mxCell id="Mg8EBvOMUo8GUyyjbdEt-91" value="" style="endArrow=none;html=1;rounded=0;entryX=1;entryY=1;entryDx=0;entryDy=0;exitX=1;exitY=1;exitDx=0;exitDy=0;" parent="1" source="Mg8EBvOMUo8GUyyjbdEt-72" target="Mg8EBvOMUo8GUyyjbdEt-73" edge="1">
          <mxGeometry width="50" height="50" relative="1" as="geometry">
            <mxPoint x="447" y="-327" as="sourcePoint" />
            <mxPoint x="497" y="-377" as="targetPoint" />
          </mxGeometry>
        </mxCell>
        <mxCell id="Mg8EBvOMUo8GUyyjbdEt-92" value="" style="endArrow=none;html=1;rounded=0;entryX=1;entryY=0.5;entryDx=0;entryDy=0;exitX=1;exitY=0.5;exitDx=0;exitDy=0;" parent="1" source="Mg8EBvOMUo8GUyyjbdEt-72" target="Mg8EBvOMUo8GUyyjbdEt-73" edge="1">
          <mxGeometry width="50" height="50" relative="1" as="geometry">
            <mxPoint x="457" y="-317" as="sourcePoint" />
            <mxPoint x="507" y="-367" as="targetPoint" />
          </mxGeometry>
        </mxCell>
        <mxCell id="Mg8EBvOMUo8GUyyjbdEt-93" value="" style="endArrow=none;html=1;rounded=0;entryX=1;entryY=0;entryDx=0;entryDy=0;exitX=1;exitY=0;exitDx=0;exitDy=0;" parent="1" source="Mg8EBvOMUo8GUyyjbdEt-72" target="Mg8EBvOMUo8GUyyjbdEt-73" edge="1">
          <mxGeometry width="50" height="50" relative="1" as="geometry">
            <mxPoint x="417" y="-349" as="sourcePoint" />
            <mxPoint x="467" y="-399" as="targetPoint" />
          </mxGeometry>
        </mxCell>
        <mxCell id="Mg8EBvOMUo8GUyyjbdEt-94" value="" style="endArrow=none;html=1;rounded=0;exitX=0.5;exitY=0;exitDx=0;exitDy=0;entryX=0.5;entryY=0;entryDx=0;entryDy=0;" parent="1" source="Mg8EBvOMUo8GUyyjbdEt-73" target="Mg8EBvOMUo8GUyyjbdEt-72" edge="1">
          <mxGeometry width="50" height="50" relative="1" as="geometry">
            <mxPoint x="427" y="-339" as="sourcePoint" />
            <mxPoint x="477" y="-389" as="targetPoint" />
          </mxGeometry>
        </mxCell>
        <mxCell id="Mg8EBvOMUo8GUyyjbdEt-95" value="" style="endArrow=none;html=1;rounded=0;exitX=0;exitY=0;exitDx=0;exitDy=0;entryX=0;entryY=0;entryDx=0;entryDy=0;" parent="1" source="Mg8EBvOMUo8GUyyjbdEt-72" target="Mg8EBvOMUo8GUyyjbdEt-73" edge="1">
          <mxGeometry width="50" height="50" relative="1" as="geometry">
            <mxPoint x="437" y="-329" as="sourcePoint" />
            <mxPoint x="487" y="-379" as="targetPoint" />
          </mxGeometry>
        </mxCell>
        <mxCell id="Mg8EBvOMUo8GUyyjbdEt-96" value="" style="endArrow=none;html=1;rounded=0;entryX=0;entryY=0.5;entryDx=0;entryDy=0;exitX=0;exitY=0.5;exitDx=0;exitDy=0;" parent="1" source="Mg8EBvOMUo8GUyyjbdEt-73" target="Mg8EBvOMUo8GUyyjbdEt-72" edge="1">
          <mxGeometry width="50" height="50" relative="1" as="geometry">
            <mxPoint x="417" y="-343" as="sourcePoint" />
            <mxPoint x="467" y="-393" as="targetPoint" />
          </mxGeometry>
        </mxCell>
        <mxCell id="Mg8EBvOMUo8GUyyjbdEt-98" value="" style="endArrow=none;html=1;rounded=0;entryX=0;entryY=1;entryDx=0;entryDy=0;exitX=0;exitY=1;exitDx=0;exitDy=0;" parent="1" source="Mg8EBvOMUo8GUyyjbdEt-73" target="Mg8EBvOMUo8GUyyjbdEt-72" edge="1">
          <mxGeometry width="50" height="50" relative="1" as="geometry">
            <mxPoint x="427" y="-333" as="sourcePoint" />
            <mxPoint x="477" y="-383" as="targetPoint" />
          </mxGeometry>
        </mxCell>
        <mxCell id="Mg8EBvOMUo8GUyyjbdEt-99" value="" style="endArrow=none;html=1;rounded=0;exitX=0.5;exitY=1;exitDx=0;exitDy=0;entryX=0.5;entryY=1;entryDx=0;entryDy=0;" parent="1" source="Mg8EBvOMUo8GUyyjbdEt-72" target="Mg8EBvOMUo8GUyyjbdEt-73" edge="1">
          <mxGeometry width="50" height="50" relative="1" as="geometry">
            <mxPoint x="422" y="-302" as="sourcePoint" />
            <mxPoint x="472" y="-352" as="targetPoint" />
          </mxGeometry>
        </mxCell>
        <mxCell id="Mg8EBvOMUo8GUyyjbdEt-100" value="" style="endArrow=none;html=1;rounded=0;exitX=0.5;exitY=0;exitDx=0;exitDy=0;entryX=0.5;entryY=0;entryDx=0;entryDy=0;" parent="1" source="Mg8EBvOMUo8GUyyjbdEt-75" target="Mg8EBvOMUo8GUyyjbdEt-74" edge="1">
          <mxGeometry width="50" height="50" relative="1" as="geometry">
            <mxPoint x="382" y="-267" as="sourcePoint" />
            <mxPoint x="432" y="-317" as="targetPoint" />
          </mxGeometry>
        </mxCell>
        <mxCell id="Mg8EBvOMUo8GUyyjbdEt-101" value="" style="endArrow=none;html=1;rounded=0;exitX=1;exitY=0;exitDx=0;exitDy=0;entryX=1;entryY=0;entryDx=0;entryDy=0;" parent="1" source="Mg8EBvOMUo8GUyyjbdEt-75" target="Mg8EBvOMUo8GUyyjbdEt-74" edge="1">
          <mxGeometry width="50" height="50" relative="1" as="geometry">
            <mxPoint x="402" y="-257" as="sourcePoint" />
            <mxPoint x="452" y="-307" as="targetPoint" />
          </mxGeometry>
        </mxCell>
        <mxCell id="Mg8EBvOMUo8GUyyjbdEt-102" value="" style="endArrow=none;html=1;rounded=0;exitX=1;exitY=0.5;exitDx=0;exitDy=0;entryX=1;entryY=0.5;entryDx=0;entryDy=0;" parent="1" source="Mg8EBvOMUo8GUyyjbdEt-75" target="Mg8EBvOMUo8GUyyjbdEt-74" edge="1">
          <mxGeometry width="50" height="50" relative="1" as="geometry">
            <mxPoint x="467" y="-293" as="sourcePoint" />
            <mxPoint x="517" y="-343" as="targetPoint" />
          </mxGeometry>
        </mxCell>
        <mxCell id="Mg8EBvOMUo8GUyyjbdEt-103" value="" style="endArrow=none;html=1;rounded=0;exitX=1;exitY=1;exitDx=0;exitDy=0;entryX=1;entryY=1;entryDx=0;entryDy=0;" parent="1" source="Mg8EBvOMUo8GUyyjbdEt-75" target="Mg8EBvOMUo8GUyyjbdEt-74" edge="1">
          <mxGeometry width="50" height="50" relative="1" as="geometry">
            <mxPoint x="417" y="-267" as="sourcePoint" />
            <mxPoint x="467" y="-317" as="targetPoint" />
          </mxGeometry>
        </mxCell>
        <mxCell id="Mg8EBvOMUo8GUyyjbdEt-104" value="" style="endArrow=none;html=1;rounded=0;exitX=0.5;exitY=1;exitDx=0;exitDy=0;entryX=0.5;entryY=1;entryDx=0;entryDy=0;" parent="1" source="Mg8EBvOMUo8GUyyjbdEt-74" target="Mg8EBvOMUo8GUyyjbdEt-75" edge="1">
          <mxGeometry width="50" height="50" relative="1" as="geometry">
            <mxPoint x="388" y="-170" as="sourcePoint" />
            <mxPoint x="438" y="-220" as="targetPoint" />
          </mxGeometry>
        </mxCell>
        <mxCell id="Mg8EBvOMUo8GUyyjbdEt-105" value="" style="endArrow=none;html=1;rounded=0;exitX=0;exitY=1;exitDx=0;exitDy=0;entryX=0;entryY=1;entryDx=0;entryDy=0;" parent="1" source="Mg8EBvOMUo8GUyyjbdEt-74" target="Mg8EBvOMUo8GUyyjbdEt-75" edge="1">
          <mxGeometry width="50" height="50" relative="1" as="geometry">
            <mxPoint x="367" y="-160" as="sourcePoint" />
            <mxPoint x="417" y="-210" as="targetPoint" />
          </mxGeometry>
        </mxCell>
        <mxCell id="Mg8EBvOMUo8GUyyjbdEt-106" value="" style="endArrow=none;html=1;rounded=0;exitX=0;exitY=0.5;exitDx=0;exitDy=0;entryX=0;entryY=0.5;entryDx=0;entryDy=0;" parent="1" source="Mg8EBvOMUo8GUyyjbdEt-74" target="Mg8EBvOMUo8GUyyjbdEt-75" edge="1">
          <mxGeometry width="50" height="50" relative="1" as="geometry">
            <mxPoint x="392" y="-180" as="sourcePoint" />
            <mxPoint x="442" y="-230" as="targetPoint" />
          </mxGeometry>
        </mxCell>
        <mxCell id="Mg8EBvOMUo8GUyyjbdEt-107" value="" style="endArrow=none;html=1;rounded=0;exitX=0;exitY=0;exitDx=0;exitDy=0;entryX=0;entryY=0;entryDx=0;entryDy=0;" parent="1" source="Mg8EBvOMUo8GUyyjbdEt-74" target="Mg8EBvOMUo8GUyyjbdEt-75" edge="1">
          <mxGeometry width="50" height="50" relative="1" as="geometry">
            <mxPoint x="457" y="-227" as="sourcePoint" />
            <mxPoint x="507" y="-277" as="targetPoint" />
          </mxGeometry>
        </mxCell>
        <mxCell id="Mg8EBvOMUo8GUyyjbdEt-111" value="" style="endArrow=classic;html=1;rounded=0;edgeStyle=orthogonalEdgeStyle;curved=1;" parent="1" edge="1">
          <mxGeometry width="50" height="50" relative="1" as="geometry">
            <mxPoint x="290" y="-419" as="sourcePoint" />
            <mxPoint x="300" y="-399" as="targetPoint" />
            <Array as="points">
              <mxPoint x="290" y="-449" />
            </Array>
          </mxGeometry>
        </mxCell>
        <mxCell id="Mg8EBvOMUo8GUyyjbdEt-112" value="SQ" style="rounded=0;whiteSpace=wrap;html=1;" parent="1" vertex="1">
          <mxGeometry x="647.75" y="-560" width="72.5" height="17" as="geometry" />
        </mxCell>
        <mxCell id="Mg8EBvOMUo8GUyyjbdEt-113" value="RQ" style="rounded=0;whiteSpace=wrap;html=1;" parent="1" vertex="1">
          <mxGeometry x="647.75" y="-535" width="72.5" height="17" as="geometry" />
        </mxCell>
        <mxCell id="Mg8EBvOMUo8GUyyjbdEt-114" value="send cq" style="rounded=0;whiteSpace=wrap;html=1;" parent="1" vertex="1">
          <mxGeometry x="647.75" y="-584.5" width="72.5" height="17" as="geometry" />
        </mxCell>
        <mxCell id="Mg8EBvOMUo8GUyyjbdEt-115" value="recv cq" style="rounded=0;whiteSpace=wrap;html=1;" parent="1" vertex="1">
          <mxGeometry x="647.75" y="-512" width="72.5" height="17" as="geometry" />
        </mxCell>
        <mxCell id="Mg8EBvOMUo8GUyyjbdEt-121" value="" style="rounded=0;whiteSpace=wrap;html=1;" parent="1" vertex="1">
          <mxGeometry x="634" y="-465" width="100" height="100" as="geometry" />
        </mxCell>
        <mxCell id="Mg8EBvOMUo8GUyyjbdEt-122" value="SQ" style="rounded=0;whiteSpace=wrap;html=1;" parent="1" vertex="1">
          <mxGeometry x="647.75" y="-435" width="72.5" height="17" as="geometry" />
        </mxCell>
        <mxCell id="Mg8EBvOMUo8GUyyjbdEt-123" value="RQ" style="rounded=0;whiteSpace=wrap;html=1;" parent="1" vertex="1">
          <mxGeometry x="647.75" y="-410" width="72.5" height="17" as="geometry" />
        </mxCell>
        <mxCell id="Mg8EBvOMUo8GUyyjbdEt-124" value="send cq" style="rounded=0;whiteSpace=wrap;html=1;" parent="1" vertex="1">
          <mxGeometry x="647.75" y="-459.5" width="72.5" height="17" as="geometry" />
        </mxCell>
        <mxCell id="Mg8EBvOMUo8GUyyjbdEt-125" value="recv cq" style="rounded=0;whiteSpace=wrap;html=1;" parent="1" vertex="1">
          <mxGeometry x="647.75" y="-387" width="72.5" height="17" as="geometry" />
        </mxCell>
        <mxCell id="Mg8EBvOMUo8GUyyjbdEt-126" value="" style="rounded=0;whiteSpace=wrap;html=1;" parent="1" vertex="1">
          <mxGeometry x="634" y="-277" width="100" height="100" as="geometry" />
        </mxCell>
        <mxCell id="Mg8EBvOMUo8GUyyjbdEt-127" value="SQ" style="rounded=0;whiteSpace=wrap;html=1;" parent="1" vertex="1">
          <mxGeometry x="647.75" y="-247" width="72.5" height="17" as="geometry" />
        </mxCell>
        <mxCell id="Mg8EBvOMUo8GUyyjbdEt-128" value="RQ" style="rounded=0;whiteSpace=wrap;html=1;" parent="1" vertex="1">
          <mxGeometry x="647.75" y="-222" width="72.5" height="17" as="geometry" />
        </mxCell>
        <mxCell id="Mg8EBvOMUo8GUyyjbdEt-129" value="send cq" style="rounded=0;whiteSpace=wrap;html=1;" parent="1" vertex="1">
          <mxGeometry x="647.75" y="-271.5" width="72.5" height="17" as="geometry" />
        </mxCell>
        <mxCell id="Mg8EBvOMUo8GUyyjbdEt-130" value="recv cq" style="rounded=0;whiteSpace=wrap;html=1;" parent="1" vertex="1">
          <mxGeometry x="647.75" y="-199" width="72.5" height="17" as="geometry" />
        </mxCell>
        <mxCell id="Mg8EBvOMUo8GUyyjbdEt-152" style="edgeStyle=orthogonalEdgeStyle;rounded=0;orthogonalLoop=1;jettySize=auto;html=1;exitX=0;exitY=0.25;exitDx=0;exitDy=0;dashed=1;" parent="1" source="Mg8EBvOMUo8GUyyjbdEt-131" edge="1">
          <mxGeometry relative="1" as="geometry">
            <mxPoint x="480" y="-552" as="targetPoint" />
          </mxGeometry>
        </mxCell>
        <mxCell id="Mg8EBvOMUo8GUyyjbdEt-131" value="&lt;font style=&quot;font-size: 10px;&quot;&gt;发送&lt;/font&gt;&lt;div&gt;&lt;font style=&quot;font-size: 10px;&quot;&gt;完成&lt;/font&gt;&lt;/div&gt;&lt;div&gt;&lt;font style=&quot;font-size: 10px;&quot;&gt;事件&lt;/font&gt;&lt;/div&gt;&lt;div&gt;&lt;font style=&quot;font-size: 10px;&quot;&gt;通道&lt;/font&gt;&lt;/div&gt;" style="rounded=0;whiteSpace=wrap;html=1;" parent="1" vertex="1">
          <mxGeometry x="570" y="-567" width="30" height="60" as="geometry" />
        </mxCell>
        <mxCell id="Mg8EBvOMUo8GUyyjbdEt-135" value="" style="endArrow=classic;html=1;rounded=0;entryX=0;entryY=0.25;entryDx=0;entryDy=0;dashed=1;" parent="1" target="Mg8EBvOMUo8GUyyjbdEt-77" edge="1">
          <mxGeometry width="50" height="50" relative="1" as="geometry">
            <mxPoint x="260" y="-494" as="sourcePoint" />
            <mxPoint x="300" y="-540" as="targetPoint" />
          </mxGeometry>
        </mxCell>
        <mxCell id="PBvhqmCIZ9E0N1eMdryL-3" style="edgeStyle=orthogonalEdgeStyle;rounded=0;orthogonalLoop=1;jettySize=auto;html=1;exitX=1;exitY=0.5;exitDx=0;exitDy=0;entryX=0;entryY=0.5;entryDx=0;entryDy=0;" parent="1" source="Mg8EBvOMUo8GUyyjbdEt-137" target="PBvhqmCIZ9E0N1eMdryL-1" edge="1">
          <mxGeometry relative="1" as="geometry" />
        </mxCell>
        <mxCell id="Mg8EBvOMUo8GUyyjbdEt-137" value="recv wr" style="rounded=1;whiteSpace=wrap;html=1;arcSize=20;" parent="1" vertex="1">
          <mxGeometry x="280" y="-516" width="46" height="17" as="geometry" />
        </mxCell>
        <mxCell id="Mg8EBvOMUo8GUyyjbdEt-139" value="&lt;font style=&quot;font-size: 10px;&quot;&gt;msg&lt;/font&gt;" style="text;html=1;align=center;verticalAlign=middle;resizable=0;points=[];autosize=1;strokeColor=none;fillColor=none;" parent="1" vertex="1">
          <mxGeometry x="369" y="-574" width="40" height="30" as="geometry" />
        </mxCell>
        <mxCell id="Mg8EBvOMUo8GUyyjbdEt-140" value="&lt;font style=&quot;font-size: 10px;&quot;&gt;msg&lt;/font&gt;" style="text;html=1;align=center;verticalAlign=middle;resizable=0;points=[];autosize=1;strokeColor=none;fillColor=none;" parent="1" vertex="1">
          <mxGeometry x="349" y="-557" width="40" height="30" as="geometry" />
        </mxCell>
        <mxCell id="Mg8EBvOMUo8GUyyjbdEt-141" value="&lt;font style=&quot;font-size: 10px;&quot;&gt;msg&lt;/font&gt;" style="text;html=1;align=center;verticalAlign=middle;resizable=0;points=[];autosize=1;strokeColor=none;fillColor=none;" parent="1" vertex="1">
          <mxGeometry x="323" y="-557" width="40" height="30" as="geometry" />
        </mxCell>
        <mxCell id="Mg8EBvOMUo8GUyyjbdEt-142" value="&lt;font style=&quot;font-size: 10px;&quot;&gt;msg&lt;/font&gt;" style="text;html=1;align=center;verticalAlign=middle;resizable=0;points=[];autosize=1;strokeColor=none;fillColor=none;" parent="1" vertex="1">
          <mxGeometry x="308" y="-574" width="40" height="30" as="geometry" />
        </mxCell>
        <mxCell id="Mg8EBvOMUo8GUyyjbdEt-146" value="" style="endArrow=classic;html=1;rounded=0;entryX=-0.004;entryY=0.056;entryDx=0;entryDy=0;entryPerimeter=0;dashed=1;" parent="1" edge="1">
          <mxGeometry width="50" height="50" relative="1" as="geometry">
            <mxPoint x="480" y="-585" as="sourcePoint" />
            <mxPoint x="589.3199999999999" y="-584.8599999999999" as="targetPoint" />
          </mxGeometry>
        </mxCell>
        <mxCell id="Mg8EBvOMUo8GUyyjbdEt-147" value="send wr" style="rounded=1;whiteSpace=wrap;html=1;arcSize=20;" parent="1" vertex="1">
          <mxGeometry x="499" y="-611" width="46" height="17" as="geometry" />
        </mxCell>
        <mxCell id="Mg8EBvOMUo8GUyyjbdEt-148" value="&lt;font style=&quot;font-size: 10px;&quot;&gt;接收&lt;/font&gt;&lt;div&gt;&lt;font style=&quot;font-size: 10px;&quot;&gt;完成事件&lt;/font&gt;&lt;/div&gt;&lt;div&gt;&lt;font style=&quot;font-size: 10px;&quot;&gt;通道&lt;/font&gt;&lt;/div&gt;" style="rounded=0;whiteSpace=wrap;html=1;" parent="1" vertex="1">
          <mxGeometry x="570" y="-397" width="30" height="60" as="geometry" />
        </mxCell>
        <mxCell id="Mg8EBvOMUo8GUyyjbdEt-156" value="" style="endArrow=classic;html=1;rounded=0;exitX=0;exitY=1;exitDx=0;exitDy=0;dashed=1;" parent="1" edge="1">
          <mxGeometry width="50" height="50" relative="1" as="geometry">
            <mxPoint x="570" y="-349" as="sourcePoint" />
            <mxPoint x="500" y="-349" as="targetPoint" />
          </mxGeometry>
        </mxCell>
        <mxCell id="Mg8EBvOMUo8GUyyjbdEt-157" value="" style="endArrow=none;html=1;rounded=0;dashed=1;" parent="1" edge="1">
          <mxGeometry width="50" height="50" relative="1" as="geometry">
            <mxPoint x="610" y="-504" as="sourcePoint" />
            <mxPoint x="610" y="-192" as="targetPoint" />
          </mxGeometry>
        </mxCell>
        <mxCell id="Mg8EBvOMUo8GUyyjbdEt-160" value="" style="endArrow=classic;html=1;rounded=0;entryX=0;entryY=0.5;entryDx=0;entryDy=0;dashed=1;" parent="1" target="Mg8EBvOMUo8GUyyjbdEt-115" edge="1">
          <mxGeometry width="50" height="50" relative="1" as="geometry">
            <mxPoint x="610" y="-504" as="sourcePoint" />
            <mxPoint x="650" y="-504" as="targetPoint" />
          </mxGeometry>
        </mxCell>
        <mxCell id="Mg8EBvOMUo8GUyyjbdEt-163" value="" style="endArrow=classic;html=1;rounded=0;dashed=1;" parent="1" edge="1">
          <mxGeometry width="50" height="50" relative="1" as="geometry">
            <mxPoint x="609" y="-380" as="sourcePoint" />
            <mxPoint x="649" y="-380" as="targetPoint" />
          </mxGeometry>
        </mxCell>
        <mxCell id="Mg8EBvOMUo8GUyyjbdEt-164" value="" style="endArrow=classic;html=1;rounded=0;entryX=0;entryY=0.5;entryDx=0;entryDy=0;dashed=1;" parent="1" edge="1">
          <mxGeometry width="50" height="50" relative="1" as="geometry">
            <mxPoint x="609.75" y="-193" as="sourcePoint" />
            <mxPoint x="647.75" y="-192" as="targetPoint" />
          </mxGeometry>
        </mxCell>
        <mxCell id="Mg8EBvOMUo8GUyyjbdEt-165" value="" style="endArrow=classic;html=1;rounded=0;dashed=1;" parent="1" edge="1">
          <mxGeometry width="50" height="50" relative="1" as="geometry">
            <mxPoint x="608" y="-313" as="sourcePoint" />
            <mxPoint x="500" y="-313" as="targetPoint" />
          </mxGeometry>
        </mxCell>
        <mxCell id="Mg8EBvOMUo8GUyyjbdEt-166" value="" style="endArrow=classic;html=1;rounded=0;dashed=1;" parent="1" edge="1">
          <mxGeometry width="50" height="50" relative="1" as="geometry">
            <mxPoint x="750" y="-620" as="sourcePoint" />
            <mxPoint x="480" y="-620" as="targetPoint" />
          </mxGeometry>
        </mxCell>
        <mxCell id="Mg8EBvOMUo8GUyyjbdEt-167" value="" style="endArrow=none;html=1;rounded=0;dashed=1;" parent="1" edge="1">
          <mxGeometry width="50" height="50" relative="1" as="geometry">
            <mxPoint x="750" y="-263" as="sourcePoint" />
            <mxPoint x="750" y="-620.5" as="targetPoint" />
          </mxGeometry>
        </mxCell>
        <mxCell id="Mg8EBvOMUo8GUyyjbdEt-168" value="" style="endArrow=classic;html=1;rounded=0;dashed=1;" parent="1" edge="1">
          <mxGeometry width="50" height="50" relative="1" as="geometry">
            <mxPoint x="750" y="-263.48" as="sourcePoint" />
            <mxPoint x="720.25" y="-263.46" as="targetPoint" />
          </mxGeometry>
        </mxCell>
        <mxCell id="Mg8EBvOMUo8GUyyjbdEt-169" value="1" style="ellipse;whiteSpace=wrap;html=1;aspect=fixed;fillColor=#f8cecc;strokeColor=#b85450;" parent="1" vertex="1">
          <mxGeometry x="501" y="-374" width="15" height="15" as="geometry" />
        </mxCell>
        <mxCell id="Mg8EBvOMUo8GUyyjbdEt-170" value="2" style="ellipse;whiteSpace=wrap;html=1;aspect=fixed;fillColor=#f8cecc;strokeColor=#b85450;" parent="1" vertex="1">
          <mxGeometry x="501" y="-337.75" width="15" height="15" as="geometry" />
        </mxCell>
        <mxCell id="Mg8EBvOMUo8GUyyjbdEt-171" value="1" style="ellipse;whiteSpace=wrap;html=1;aspect=fixed;fillColor=#dae8fc;strokeColor=#6c8ebf;" parent="1" vertex="1">
          <mxGeometry x="476" y="-609.5" width="15" height="15" as="geometry" />
        </mxCell>
        <mxCell id="Mg8EBvOMUo8GUyyjbdEt-172" value="2" style="ellipse;whiteSpace=wrap;html=1;aspect=fixed;fillColor=#dae8fc;strokeColor=#6c8ebf;" parent="1" vertex="1">
          <mxGeometry x="476" y="-576" width="15" height="15" as="geometry" />
        </mxCell>
        <mxCell id="Mg8EBvOMUo8GUyyjbdEt-173" value="" style="endArrow=classic;html=1;rounded=0;dashed=1;" parent="1" edge="1">
          <mxGeometry width="50" height="50" relative="1" as="geometry">
            <mxPoint x="750" y="-576.48" as="sourcePoint" />
            <mxPoint x="720.25" y="-576.46" as="targetPoint" />
          </mxGeometry>
        </mxCell>
        <mxCell id="Mg8EBvOMUo8GUyyjbdEt-175" value="3" style="ellipse;whiteSpace=wrap;html=1;aspect=fixed;fillColor=#dae8fc;strokeColor=#6c8ebf;" parent="1" vertex="1">
          <mxGeometry x="476" y="-645" width="15" height="15" as="geometry" />
        </mxCell>
        <mxCell id="Mg8EBvOMUo8GUyyjbdEt-177" value="" style="endArrow=classic;html=1;rounded=0;dashed=1;" parent="1" edge="1">
          <mxGeometry width="50" height="50" relative="1" as="geometry">
            <mxPoint x="750" y="-451.48" as="sourcePoint" />
            <mxPoint x="720.25" y="-451.46" as="targetPoint" />
          </mxGeometry>
        </mxCell>
        <mxCell id="Mg8EBvOMUo8GUyyjbdEt-178" value="" style="endArrow=classic;html=1;rounded=0;dashed=1;" parent="1" edge="1">
          <mxGeometry width="50" height="50" relative="1" as="geometry">
            <mxPoint x="455" y="-340" as="sourcePoint" />
            <mxPoint x="409" y="-340" as="targetPoint" />
          </mxGeometry>
        </mxCell>
        <mxCell id="Mg8EBvOMUo8GUyyjbdEt-180" value="3" style="ellipse;whiteSpace=wrap;html=1;aspect=fixed;fillColor=#f8cecc;strokeColor=#b85450;" parent="1" vertex="1">
          <mxGeometry x="439" y="-365" width="15" height="15" as="geometry" />
        </mxCell>
        <mxCell id="Mg8EBvOMUo8GUyyjbdEt-181" value="poll" style="text;html=1;align=center;verticalAlign=middle;resizable=0;points=[];autosize=1;strokeColor=none;fillColor=none;" parent="1" vertex="1">
          <mxGeometry x="496" y="-653" width="40" height="30" as="geometry" />
        </mxCell>
        <mxCell id="Mg8EBvOMUo8GUyyjbdEt-182" value="poll" style="text;html=1;align=center;verticalAlign=middle;resizable=0;points=[];autosize=1;strokeColor=none;fillColor=none;" parent="1" vertex="1">
          <mxGeometry x="521" y="-341" width="40" height="30" as="geometry" />
        </mxCell>
        <mxCell id="Mg8EBvOMUo8GUyyjbdEt-183" value="1" style="ellipse;whiteSpace=wrap;html=1;aspect=fixed;fillColor=#d5e8d4;strokeColor=#82b366;" parent="1" vertex="1">
          <mxGeometry x="230" y="-402.75" width="15" height="15" as="geometry" />
        </mxCell>
        <mxCell id="Mg8EBvOMUo8GUyyjbdEt-184" value="3" style="ellipse;whiteSpace=wrap;html=1;aspect=fixed;fillColor=#d5e8d4;strokeColor=#82b366;" parent="1" vertex="1">
          <mxGeometry x="256" y="-515" width="15" height="15" as="geometry" />
        </mxCell>
        <mxCell id="Mg8EBvOMUo8GUyyjbdEt-185" value="&lt;font style=&quot;font-size: 10px;&quot;&gt;事件通知&lt;/font&gt;" style="text;html=1;align=center;verticalAlign=middle;resizable=0;points=[];autosize=1;strokeColor=none;fillColor=none;" parent="1" vertex="1">
          <mxGeometry x="491" y="-584" width="60" height="30" as="geometry" />
        </mxCell>
        <mxCell id="Mg8EBvOMUo8GUyyjbdEt-186" value="&lt;font style=&quot;font-size: 10px;&quot;&gt;事件通知&lt;/font&gt;" style="text;html=1;align=center;verticalAlign=middle;resizable=0;points=[];autosize=1;strokeColor=none;fillColor=none;" parent="1" vertex="1">
          <mxGeometry x="515" y="-376" width="60" height="30" as="geometry" />
        </mxCell>
        <mxCell id="Mg8EBvOMUo8GUyyjbdEt-187" value="" style="endArrow=classic;html=1;rounded=0;dashed=1;" parent="1" edge="1">
          <mxGeometry width="50" height="50" relative="1" as="geometry">
            <mxPoint x="260" y="-464" as="sourcePoint" />
            <mxPoint x="330" y="-464" as="targetPoint" />
          </mxGeometry>
        </mxCell>
        <mxCell id="Mg8EBvOMUo8GUyyjbdEt-188" value="2" style="ellipse;whiteSpace=wrap;html=1;aspect=fixed;fillColor=#d5e8d4;strokeColor=#82b366;" parent="1" vertex="1">
          <mxGeometry x="256" y="-487" width="15" height="15" as="geometry" />
        </mxCell>
        <mxCell id="Mg8EBvOMUo8GUyyjbdEt-189" value="&lt;font style=&quot;font-size: 10px;&quot;&gt;检查队列&lt;/font&gt;" style="text;html=1;align=center;verticalAlign=middle;resizable=0;points=[];autosize=1;strokeColor=none;fillColor=none;" parent="1" vertex="1">
          <mxGeometry x="270" y="-494" width="60" height="30" as="geometry" />
        </mxCell>
        <mxCell id="Mg8EBvOMUo8GUyyjbdEt-190" value="&lt;font style=&quot;font-size: 10px;&quot;&gt;消息处理&lt;/font&gt;" style="text;html=1;align=center;verticalAlign=middle;resizable=0;points=[];autosize=1;strokeColor=none;fillColor=none;" parent="1" vertex="1">
          <mxGeometry x="175" y="-410" width="60" height="30" as="geometry" />
        </mxCell>
        <mxCell id="Mg8EBvOMUo8GUyyjbdEt-191" value="&lt;font style=&quot;font-size: 10px;&quot;&gt;更新队列&lt;/font&gt;&lt;div&gt;&lt;font style=&quot;font-size: 10px;&quot;&gt;信息&lt;/font&gt;&lt;/div&gt;" style="text;html=1;align=center;verticalAlign=middle;resizable=0;points=[];autosize=1;strokeColor=none;fillColor=none;" parent="1" vertex="1">
          <mxGeometry x="391" y="-383" width="60" height="40" as="geometry" />
        </mxCell>
        <mxCell id="PBvhqmCIZ9E0N1eMdryL-1" value="recv wr" style="rounded=1;whiteSpace=wrap;html=1;arcSize=20;" parent="1" vertex="1">
          <mxGeometry x="341" y="-516" width="46" height="17" as="geometry" />
        </mxCell>
        <mxCell id="PBvhqmCIZ9E0N1eMdryL-4" value="" style="shape=curlyBracket;whiteSpace=wrap;html=1;rounded=1;labelPosition=left;verticalLabelPosition=middle;align=right;verticalAlign=middle;rotation=-90;" parent="1" vertex="1">
          <mxGeometry x="363" y="-535" width="13" height="96" as="geometry" />
        </mxCell>
        <mxCell id="PBvhqmCIZ9E0N1eMdryL-5" value="recv wr" style="rounded=1;whiteSpace=wrap;html=1;arcSize=20;" parent="1" vertex="1">
          <mxGeometry x="414" y="-517" width="46" height="17" as="geometry" />
        </mxCell>
        <mxCell id="PBvhqmCIZ9E0N1eMdryL-9" value="&lt;font style=&quot;font-size: 10px;&quot;&gt;&lt;i&gt;BatchingSize&lt;/i&gt;&lt;/font&gt;" style="text;html=1;align=center;verticalAlign=middle;resizable=0;points=[];autosize=1;strokeColor=none;fillColor=none;" parent="1" vertex="1">
          <mxGeometry x="331" y="-492" width="80" height="30" as="geometry" />
        </mxCell>
        <mxCell id="PBvhqmCIZ9E0N1eMdryL-11" value="" style="endArrow=classic;html=1;rounded=0;entryX=0;entryY=0.5;entryDx=0;entryDy=0;" parent="1" edge="1">
          <mxGeometry width="50" height="50" relative="1" as="geometry">
            <mxPoint x="400" y="-507" as="sourcePoint" />
            <mxPoint x="414" y="-507.5" as="targetPoint" />
          </mxGeometry>
        </mxCell>
        <mxCell id="PBvhqmCIZ9E0N1eMdryL-12" value="" style="endArrow=none;dashed=1;html=1;dashPattern=1 3;strokeWidth=2;rounded=0;" parent="1" edge="1">
          <mxGeometry width="50" height="50" relative="1" as="geometry">
            <mxPoint x="389" y="-507" as="sourcePoint" />
            <mxPoint x="399" y="-507" as="targetPoint" />
          </mxGeometry>
        </mxCell>
      </root>
    </mxGraphModel>
  </diagram>
</mxfile>
